<svg width="60" height="101" viewBox="0 0 60 101" fill="none" xmlns="http://www.w3.org/2000/svg">
<path d="M12.7731 72.022C12.542 72.1328 12.3093 72.239 12.08 72.3583C9.83709 73.5318 7.82712 75.1579 6.21376 77.129C5.30023 78.1649 4.8095 79.3867 4.58012 80.5545C4.46613 81.0352 4.39338 81.5407 4.36973 82.0492C4.32315 83.0513 4.46818 84.0798 4.86477 85.0761C5.66771 86.8743 6.86028 88.5109 8.39194 89.797C9.65777 90.8334 11.0173 91.5871 12.2656 92.3131C12.302 92.3308 12.3282 92.3454 12.3646 92.363C16.2055 94.2131 20.2947 95.3912 24.4684 96.0251C28.6334 96.6576 32.8817 96.753 37.0548 96.4486C37.0634 96.4478 37.0833 96.4494 37.0919 96.4486C39.658 96.1521 42.2716 95.7997 44.8641 95.0784C46.4342 94.6334 47.9684 94.0351 49.4308 93.2847C50.5798 92.6952 51.6956 92.0132 52.7352 91.2295C53.3475 90.6682 54.0409 90.0035 54.6411 89.1119C55.3934 87.8518 55.6944 86.4087 55.5817 85.0138C55.3056 83.9099 54.8155 82.8329 54.1214 81.8873C53.8727 81.5486 53.6083 81.2296 53.3045 80.9282C52.3889 80.0927 51.425 79.5466 50.6437 79.0099C48.0779 77.6463 45.3344 76.6629 42.525 76.0329C41.7719 75.864 41.0206 75.7294 40.2602 75.6094C36.8252 75.0776 33.3647 74.9982 29.9633 75.0862C29.9843 75.9353 30.0042 76.7781 30.0252 77.6273C33.3487 77.5471 36.6516 77.6211 39.8642 78.1255C40.5637 78.233 41.2653 78.3603 41.9557 78.5117C44.5313 79.0764 47.0257 79.9482 49.3318 81.1773C50.2006 81.7919 51.0235 82.2367 51.5719 82.7841C51.7679 82.9548 51.9414 83.1472 52.1041 83.3571C52.5583 83.9432 52.8878 84.6647 53.0941 85.4249C53.1428 86.2626 52.9624 87.1185 52.5125 87.7417C52.2237 88.2429 51.6892 88.7028 51.1016 89.2738C50.2046 89.9532 49.2403 90.5558 48.2304 91.0675C46.945 91.7188 45.5821 92.2357 44.1834 92.6245C41.8424 93.289 39.3663 93.6088 36.8444 93.9075C36.836 93.9087 36.8281 93.9063 36.8197 93.9075C32.8267 94.1926 28.7931 94.1187 24.8644 93.5339C20.9275 92.9478 17.1004 91.8559 13.5527 90.1208C13.5191 90.1044 13.4873 90.0876 13.4537 90.071C12.1933 89.324 10.9731 88.6682 10.0008 87.8414C8.79539 86.8489 7.8489 85.5278 7.19145 84.0671C6.9419 83.5137 6.86474 82.8576 6.9068 82.1738C6.92815 81.8268 6.98264 81.4662 7.05531 81.115C7.29497 80.1924 7.60279 79.3383 8.13203 78.7982C9.53328 77.0809 11.292 75.6619 13.2557 74.6253C13.4541 74.5199 13.6586 74.4125 13.8621 74.3139L12.773 72.022H12.7731Z" fill="#A8A8A8" stroke="#545252" stroke-miterlimit="10" stroke-linecap="round" stroke-linejoin="round"/>
<path d="M8.3548 67.7743C8.301 67.8182 8.2474 67.8663 8.19392 67.9113C6.70297 69.1997 5.56111 70.8327 4.81526 72.6198C4.24256 74.1267 4.24415 75.7252 4.61724 77.1538C4.88327 78.3013 5.39378 79.4667 6.2385 80.4672C6.25236 80.4836 6.26159 80.5007 6.27561 80.517C8.021 82.5727 10.1778 84.2416 12.575 85.4372C14.0795 86.1818 15.6243 86.7529 17.1541 87.2558C17.7894 87.4647 18.4338 87.6579 19.0601 87.8537C22.4896 88.7241 26.0015 89.2764 29.5426 89.473C33.7541 89.7069 37.9911 89.443 42.129 88.6011C43.4407 88.3342 44.7521 88.0009 46.0398 87.6171C47.4384 87.0805 48.9471 86.5711 50.4333 85.7611C51.6765 85.0758 52.7958 84.1786 53.7377 83.1204C54.0922 82.722 54.4259 82.3039 54.7278 81.8623C55.4859 80.8077 55.6878 79.6395 55.6065 78.6735C55.65 77.7146 55.4252 76.5763 54.6659 75.547C53.4613 73.8862 51.8735 72.5233 50.062 71.5734C49.9695 71.5255 49.8825 71.4823 49.7897 71.4364C48.2984 70.6979 46.774 70.2057 45.3591 69.705C42.7879 68.9948 40.1683 68.5185 37.5251 68.2476C33.3313 67.8178 29.0879 67.9201 24.9139 68.5217C22.625 68.8515 20.3574 69.3354 18.1319 69.9541C16.3696 70.551 14.5479 71.1706 12.773 72.0219L13.8621 74.3138C15.4255 73.5567 17.1274 72.9832 18.8744 72.3831C20.9849 71.7944 23.1417 71.3406 25.3099 71.0254C29.2639 70.4505 33.2731 70.3459 37.2281 70.7513C39.7208 71.0069 42.1909 71.4594 44.6042 72.134C46.0478 72.6548 47.4416 73.0961 48.6635 73.7159C48.7395 73.7545 48.8117 73.788 48.8863 73.828C50.3661 74.6107 51.6779 75.7437 52.661 77.104C52.9532 77.3697 53.0103 78.01 53.0818 78.7233C53.0286 79.4426 52.9879 80.0825 52.6981 80.3426C52.4534 80.7016 52.182 81.0387 51.8937 81.364C51.1278 82.2283 50.2232 82.9722 49.2204 83.5314C48.0438 84.197 46.6613 84.6506 45.223 85.213C44.0183 85.577 42.7911 85.8825 41.5597 86.1348C37.6749 86.9306 33.6767 87.1847 29.6911 86.9569C26.3399 86.7653 22.9996 86.2284 19.7407 85.3998C19.1205 85.2031 18.5044 85.014 17.8967 84.8144C16.4334 84.3339 15.014 83.8206 13.7012 83.1577C11.5974 82.1048 9.69748 80.6398 8.18152 78.8479C8.17297 78.8385 8.16524 78.8199 8.15677 78.8105C7.63884 78.2326 7.30736 77.413 7.06768 76.531C6.82808 75.501 6.80354 74.4378 7.16669 73.5914C7.77476 72.148 8.67822 70.8263 9.83991 69.842C9.88034 69.8066 9.92231 69.7772 9.96367 69.7424L8.35479 67.7743L8.3548 67.7743Z" fill="#A8A8A8" stroke="#545252" stroke-miterlimit="10" stroke-linecap="round" stroke-linejoin="round"/>
<path d="M15.1121 56.8378C15.0409 56.8654 14.9729 56.8967 14.9017 56.925C12.0898 58.052 9.45593 59.6843 7.2286 61.7829C6.39885 62.6446 5.65446 63.6433 5.1123 64.8097C5.07349 64.8977 5.0366 64.9822 5.00092 65.0713C4.40272 66.5642 4.24063 68.2203 4.53063 69.8047C5.02168 71.5222 5.88359 73.1482 7.14197 74.4882C8.11522 75.4789 9.18221 76.2278 10.137 76.9296C10.1753 76.9578 10.2104 76.9763 10.2484 77.0044C13.6737 79.0713 17.4486 80.5175 21.3249 81.3641C21.5613 81.415 21.7935 81.4667 22.0303 81.5135C25.474 82.1945 28.9611 82.4461 32.4138 82.51C33.1248 82.4953 33.8396 82.4786 34.5549 82.4478C36.9852 82.343 39.433 82.1212 41.8691 81.6506C43.6315 81.3027 45.3796 80.8157 47.0671 80.1683C48.5639 79.594 50.0112 78.8895 51.3987 78.0632C52.0767 77.543 52.9223 76.9919 53.7254 76.1698C54.7361 75.0382 55.3552 73.6593 55.6065 72.2461C55.6267 71.6476 55.5651 71.0341 55.4333 70.44C55.2611 69.6644 54.9655 68.9148 54.5174 68.2228C53.8872 67.3532 53.1608 66.7209 52.562 66.1799C50.2612 64.4938 47.6746 63.2763 44.9755 62.4929C44.8592 62.4591 44.7333 62.4379 44.6166 62.4057C41.9888 61.6954 39.3345 61.3438 36.7331 61.0604C35.3113 60.9677 33.884 60.9316 32.451 60.9359C28.2343 60.9483 23.9919 61.3939 19.9017 62.4431C17.1617 63.1459 14.4895 64.1168 11.9315 65.3952C10.7886 66.0935 9.53625 66.8095 8.35482 67.7743L9.96371 69.7424C10.8719 68.977 11.9905 68.3511 13.1567 67.6249C15.5134 66.4278 18.0043 65.5246 20.57 64.872C24.4001 63.8978 28.4095 63.4836 32.4262 63.4769C33.7913 63.4745 35.1495 63.5148 36.5103 63.6015C39.0651 63.887 41.5821 64.2038 43.9607 64.8596C44.0649 64.8877 44.1663 64.9173 44.2701 64.9468C46.6781 65.6313 48.9767 66.684 50.9655 68.148C51.5726 68.7271 52.1218 69.1794 52.4259 69.6677C52.6913 70.0126 52.878 70.4341 52.9828 70.8884C53.0631 71.2364 53.0983 71.6046 53.0942 71.9721C52.9052 72.9166 52.5203 73.8142 51.8937 74.4259C51.4488 74.9326 50.7326 75.3698 49.9754 75.9705C48.7442 76.7062 47.4508 77.3164 46.1017 77.8265C44.5809 78.4015 42.9929 78.8377 41.3865 79.1469C39.137 79.59 36.8223 79.7928 34.4806 79.8942C33.7914 79.9241 33.1072 79.9531 32.4138 79.969C29.0683 79.9013 25.7371 79.6545 22.513 79.0098C22.2912 78.9655 22.0779 78.921 21.8571 78.8728C18.2639 78.0998 14.7856 76.7893 11.6592 74.8993C11.6203 74.8699 11.5742 74.8412 11.5355 74.8121C10.5696 74.0876 9.6582 73.4555 8.97363 72.7194C8.04171 71.7782 7.38467 70.5348 6.99346 69.2068C6.79839 68.1521 6.91901 67.0287 7.33999 66.0429C7.3651 65.9841 7.387 65.9263 7.41424 65.8685C7.77014 65.0535 8.34365 64.3001 9.01075 63.589C10.9673 61.7386 13.311 60.2951 15.8299 59.2916C15.894 59.2658 15.9637 59.2422 16.028 59.2169L15.1121 56.8378Z" fill="#A8A8A8" stroke="#545252" stroke-miterlimit="10" stroke-linecap="round" stroke-linejoin="round"/>
<path d="M10.5206 52.0795C10.1751 52.2884 9.83251 52.515 9.49341 52.7521C7.75193 53.9858 6.30583 55.6015 5.26081 57.4481C4.51806 58.6971 4.31602 60.0583 4.38211 61.2597C4.36876 62.0496 4.47346 62.9064 4.77814 63.7509C4.92737 64.1646 5.12973 64.5746 5.38457 64.9717C6.4968 66.825 7.99705 68.4353 9.79044 69.6552C11.3259 70.6884 12.9494 71.4291 14.4686 72.1464C14.5513 72.1789 14.6332 72.2016 14.7161 72.2336C18.6692 73.7589 22.7995 74.7069 26.9931 75.1359C31.1867 75.5649 35.4437 75.4812 39.6167 74.9242C40.121 74.8569 40.6247 74.7808 41.1265 74.7C43.1799 74.2595 45.3045 73.8116 47.4012 73.0308C48.9088 72.4675 50.3498 71.715 51.6709 70.7762C52.3623 70.285 53.022 69.7353 53.6387 69.1445C54.5056 68.3689 55.0448 67.3975 55.3219 66.4415C55.7408 65.1746 55.7398 63.7291 55.1733 62.3808C54.4252 60.9593 53.3819 59.6893 52.0917 58.7062C51.9384 58.5894 51.7815 58.4784 51.6214 58.3699C50.3645 57.5482 49.0618 57.0116 47.9086 56.4641C45.3511 55.5133 42.7189 54.8562 40.0498 54.4337C35.8798 53.7736 31.6272 53.6995 27.4263 54.0849C25.8246 54.2319 24.2257 54.4511 22.6491 54.7202C20.148 55.2685 17.5996 55.8737 15.1121 56.8377L16.028 59.2169C18.272 58.3347 20.6746 57.7706 23.1318 57.2239C24.6395 56.9685 26.1623 56.7557 27.6862 56.6135C31.6831 56.2406 35.7114 56.2884 39.6167 56.9C42.1162 57.2915 44.5678 57.9111 46.9309 58.8058C48.1409 59.393 49.2854 59.8523 50.2106 60.4874C50.3295 60.565 50.4551 60.6517 50.5695 60.7365C51.5316 61.4507 52.3228 62.4195 52.8962 63.5018C53.1901 64.0931 53.1437 64.9041 52.9085 65.6567C52.6603 66.3225 52.365 66.9314 51.9432 67.2636C51.4157 67.7723 50.8474 68.2322 50.2477 68.6587C49.1016 69.4738 47.8341 70.1363 46.5101 70.6392C44.6829 71.3359 42.6986 71.7497 40.6562 72.1963C40.1791 72.2732 39.6999 72.3438 39.2206 72.408C35.2549 72.9394 31.2291 73.0327 27.2654 72.6322C23.3017 72.2317 19.4069 71.3346 15.7062 69.8919C15.6285 69.8616 15.5485 69.8354 15.471 69.8047C13.9463 69.0733 12.4661 68.4171 11.2137 67.5501C9.72016 66.5296 8.45383 65.1553 7.51323 63.589C7.37428 63.4091 7.27185 63.1973 7.19145 62.9537C7.02729 62.4564 6.96152 61.8489 6.91918 61.2099C6.94136 60.2475 7.01454 59.3451 7.4266 58.7685C8.30542 57.2182 9.51921 55.8502 10.9538 54.8323C11.2272 54.6352 11.5123 54.4507 11.8077 54.2718L10.5206 52.0795H10.5206Z" fill="#A8A8A8" stroke="#545252" stroke-miterlimit="10" stroke-linecap="round" stroke-linejoin="round"/>
<path d="M17.5007 41.8529C14.4675 42.833 11.5664 44.2447 8.94887 46.1129C8.16231 46.7979 7.2633 47.5398 6.46129 48.4921C6.39736 48.568 6.33838 48.6375 6.27565 48.7163C5.19959 50.1572 4.58643 51.8597 4.36974 53.5742C4.36234 55.235 4.77 56.928 5.64447 58.4072C6.33396 59.4931 7.16571 60.3382 7.94642 61.0978C7.97671 61.123 8.01505 61.1474 8.04542 61.1725C10.513 63.2107 13.3376 64.7667 16.325 65.8187C17.403 66.1936 18.4877 66.5052 19.5799 66.7778C21.3046 67.2082 23.0488 67.5319 24.7654 67.8241C27.1771 68.1311 29.6267 68.3158 32.0797 68.3348C36.3082 68.3677 40.5463 67.9147 44.629 66.7778C46.1049 66.3668 47.5587 65.8698 48.9853 65.2706C49.9791 64.7228 51.1309 64.1815 52.2526 63.3648C53.6066 62.3292 54.6419 60.9547 55.3095 59.4286C55.316 59.4137 55.3278 59.3938 55.3342 59.3788C55.7663 58.0068 55.6722 56.5581 55.1486 55.2807C54.7611 54.3451 54.1718 53.4938 53.4036 52.8019C51.6419 51.224 49.5905 50.001 47.4136 49.1647C47.2469 49.1007 47.0867 49.05 46.9185 48.9903C44.7514 48.2272 42.5406 47.7835 40.4087 47.371C38.6099 47.1106 36.7965 46.9356 34.9757 46.8478C30.7649 46.6449 26.5246 46.9239 22.3892 47.7447C19.5243 48.3133 16.7174 49.144 13.9983 50.2608C12.8718 50.8163 11.6832 51.3764 10.5206 52.0795L11.8077 54.2718C12.8015 53.6698 13.9045 53.1457 15.0379 52.5777C17.577 51.5227 20.2104 50.7446 22.909 50.211C26.8044 49.4409 30.8277 49.1913 34.8272 49.3889C36.5566 49.4744 38.2752 49.6395 39.988 49.8872C42.0982 50.3035 44.1575 50.6955 46.0646 51.3819C46.2125 51.4347 46.3636 51.4998 46.5101 51.5563C48.4238 52.2939 50.2163 53.3384 51.7204 54.6953C52.1889 55.1129 52.5666 55.6635 52.8219 56.2647C53.1291 56.9736 53.2054 57.806 52.9704 58.482C52.9656 58.493 52.9505 58.4959 52.9457 58.5069C52.447 59.628 51.6994 60.6326 50.7427 61.322C49.9678 61.9211 48.9556 62.3745 47.8839 62.9786C46.5773 63.5388 45.2281 64.0051 43.8617 64.3862C40.0819 65.4404 36.1113 65.8388 32.1044 65.7938C29.7801 65.7676 27.4471 65.5984 25.1367 65.308C23.4573 65.0175 21.7917 64.7015 20.1739 64.299C19.1495 64.0442 18.1364 63.7614 17.1542 63.4146C14.4535 62.474 11.9138 61.0891 9.72856 59.2792C9.70163 59.2569 9.66874 59.2393 9.64193 59.2169C8.90575 58.4742 8.22669 57.7983 7.7979 57.0619C7.18412 56.1159 6.89091 54.9259 6.88208 53.7361C7.06094 52.456 7.51455 51.23 8.28057 50.2858C8.3211 50.2308 8.36087 50.1779 8.40433 50.1238C8.94947 49.4462 9.70923 48.8356 10.5083 48.1184C12.8595 46.4364 15.5063 45.1533 18.2804 44.2694L17.5007 41.8529Z" fill="#A8A8A8" stroke="#545252" stroke-miterlimit="10" stroke-linecap="round" stroke-linejoin="round"/>
<path d="M12.7978 36.6836C12.1223 37.0035 11.4545 37.3593 10.7929 37.7548C8.78651 38.9642 7.04396 40.5979 5.70634 42.5256C4.86742 43.6554 4.51822 44.9273 4.43161 46.088C4.40527 46.2847 4.39386 46.4954 4.3821 46.6984C4.31642 47.8312 4.48183 49.0495 5.05041 50.1986C5.93573 51.9451 7.18855 53.5041 8.73847 54.7327C9.93102 55.6612 11.1908 56.3665 12.3894 57.0246C12.499 57.0848 12.6151 57.1393 12.7235 57.199C16.4691 58.9373 20.4358 60.0584 24.4808 60.6743C28.6516 61.3093 32.9036 61.4097 37.092 61.0853C37.421 61.0599 37.7539 61.0287 38.082 60.9981C40.5217 60.6587 43.0127 60.2783 45.4829 59.5408C46.8369 59.1304 48.1649 58.5987 49.4309 57.9464C50.6625 57.3117 51.8377 56.5728 52.9333 55.7042C53.5954 55.1043 54.2803 54.3728 54.8268 53.4497C55.5186 52.1471 55.7308 50.6673 55.4951 49.2519C55.1827 48.3 54.7266 47.3832 54.1214 46.5614C53.7642 46.0763 53.3543 45.6249 52.8962 45.2161C51.9041 44.3913 50.873 43.8516 50.0125 43.3103C47.6218 42.1471 45.1121 41.2893 42.5374 40.707C41.4022 40.4502 40.2472 40.2361 39.0969 40.0841C36.0357 39.6896 32.9666 39.6381 29.9262 39.7603C29.3678 39.7827 28.8115 39.814 28.2555 39.8475C25.0352 40.1615 21.7835 40.6142 18.5898 41.5166C18.2274 41.6204 17.8598 41.7369 17.5007 41.8529L18.2804 44.2694C18.6088 44.1648 18.9386 44.0641 19.2705 43.9705C22.2221 43.125 25.3181 42.701 28.4535 42.3885C28.9923 42.357 29.5366 42.3227 30.0747 42.3013C33.0045 42.1853 35.9144 42.2359 38.7751 42.6128C39.8393 42.7493 40.898 42.9414 41.9434 43.1733C44.3142 43.6991 46.6194 44.4702 48.7873 45.5275C49.7309 46.1367 50.6282 46.5908 51.2625 47.1593C51.5689 47.4055 51.8354 47.6851 52.0793 48.0063C52.4925 48.5504 52.8139 49.1919 53.0447 49.8623C53.1697 50.6738 53.0397 51.5325 52.6239 52.1916C52.3475 52.7258 51.8481 53.2232 51.2873 53.7611C50.3457 54.512 49.3235 55.1656 48.2428 55.7167C47.1318 56.2832 45.9673 56.739 44.7651 57.0993C42.5498 57.7745 40.1894 58.1274 37.785 58.4695C37.4713 58.4984 37.1587 58.5201 36.8444 58.5443C32.8438 58.851 28.799 58.7724 24.8644 58.183C21.0486 57.6114 17.3329 56.5666 13.8621 54.932C13.7537 54.8713 13.648 54.8049 13.5404 54.7451C12.3635 54.0912 11.2349 53.4813 10.2978 52.7272C9.05125 51.7461 8.03545 50.4551 7.30285 49.0153C6.96708 48.4352 6.88656 47.6552 6.91919 46.823C6.92505 46.6738 6.94442 46.526 6.9563 46.3745C7.0999 45.4373 7.27684 44.5607 7.73599 44.0328C8.8815 42.3795 10.3795 40.9741 12.0924 39.9347C12.6484 39.594 13.2403 39.2876 13.8497 39.0005L12.7978 36.6836H12.7978Z" fill="#A8A8A8" stroke="#545252" stroke-miterlimit="10" stroke-linecap="round" stroke-linejoin="round"/>
<path d="M8.40432 32.4236C8.05452 32.7036 7.7149 33.0045 7.37711 33.3329C6.0697 34.6553 5.13532 36.2761 4.59251 38.004C4.20687 39.6571 4.35509 41.3902 4.97616 42.9366C5.28939 43.6987 5.7035 44.4164 6.18901 45.0666C6.44749 45.4128 6.73162 45.7423 7.03058 46.0507C9.06035 48.0737 11.4675 49.672 14.0725 50.7965C15.0895 51.2318 16.1207 51.5918 17.1542 51.9176C18.5166 52.3471 19.8898 52.7104 21.2383 53.0511C23.9707 53.6012 26.7569 53.9676 29.555 54.1223C33.7711 54.3554 38.0056 54.0972 42.1414 53.2379C43.9734 52.8573 45.7849 52.3588 47.5621 51.7307C48.7493 51.1798 50.0881 50.6516 51.3863 49.8374C52.2894 49.2559 53.0959 48.5417 53.7872 47.7323C54.2718 47.1649 54.6979 46.5523 55.062 45.9012C55.69 44.6854 55.7574 43.3888 55.4951 42.2765C55.3688 41.3651 54.9677 40.3376 54.1214 39.4738C52.8933 38.0896 51.4223 36.9533 49.8022 36.0982C49.4924 35.9347 49.1813 35.7797 48.8616 35.6373C47.0729 34.8428 45.2495 34.3474 43.5151 33.856C41.5355 33.4174 39.5289 33.0992 37.5128 32.8969C33.3181 32.4762 29.0728 32.5639 24.9016 33.171C21.9135 33.6058 18.9703 34.311 16.1022 35.2761C15.0241 35.7159 13.9044 36.1595 12.7978 36.6836L13.8498 39.0005C14.8482 38.53 15.9047 38.1133 16.9809 37.6677C19.6849 36.7515 22.473 36.0867 25.2976 35.6747C29.2407 35.0995 33.248 35.0112 37.2157 35.4131C39.1228 35.6062 41.0255 35.917 42.8963 36.3348C44.6354 36.8368 46.314 37.2782 47.822 37.9666C48.0957 38.0911 48.3737 38.2233 48.6388 38.3652C50.0256 39.1072 51.2811 40.0844 52.3145 41.255C52.6457 41.5025 52.8129 42.1064 53.0075 42.7872C53.1172 43.5197 53.1506 44.2321 52.859 44.6556C52.5754 45.1621 52.2435 45.6354 51.8689 46.0756C51.3346 46.7036 50.7109 47.2594 50.0249 47.6949C49.0557 48.3318 47.8576 48.7855 46.6091 49.3765C44.9605 49.9689 43.2726 50.4403 41.5597 50.7965C37.6928 51.6006 33.6985 51.8249 29.7035 51.5937C27.0522 51.4403 24.4019 51.0836 21.7952 50.5598C20.4683 50.2199 19.155 49.8874 17.8844 49.4886C16.9205 49.186 15.9819 48.8496 15.075 48.4547C12.7515 47.4523 10.602 46.0356 8.82511 44.257C8.60246 44.0252 8.39781 43.7784 8.20631 43.5221C7.84659 43.0405 7.54803 42.5245 7.32761 41.9775C6.89579 40.941 6.77104 39.7512 7.03058 38.6891C7.46454 37.3391 8.16961 36.0864 9.14689 35.139C9.38862 34.8917 9.66424 34.6574 9.95133 34.429L8.40432 32.4236Z" fill="#A8A8A8" stroke="#545252" stroke-miterlimit="10" stroke-linecap="round" stroke-linejoin="round"/>
<path d="M15.1492 21.5244C13.8681 22.0272 12.5707 22.5953 11.3127 23.3057C9.22193 24.4932 7.37503 26.1067 5.92911 28.039C5.48832 28.5778 5.17067 29.1543 4.93902 29.7455C4.70113 30.3527 4.55411 30.9741 4.48111 31.5641C4.23723 32.9228 4.32504 34.4484 4.97615 35.874C5.8093 37.6067 7.00068 39.171 8.50332 40.408C9.04939 40.8486 9.61014 41.2334 10.1741 41.5914C10.9058 42.0559 11.6473 42.4726 12.3523 42.8744C15.4327 44.359 18.6661 45.4026 21.9808 46.0881C26.1133 46.9427 30.3616 47.2392 34.5672 47.097C35.4141 47.0684 36.2624 47.0224 37.1043 46.96C39.6625 46.6631 42.2792 46.3084 44.8641 45.5898C45.6002 45.3815 46.3252 45.1422 47.0423 44.8674C49.0374 44.1026 50.9436 43.0747 52.6734 41.7782C53.2823 41.2251 53.9939 40.5817 54.604 39.698C55.3716 38.4559 55.6804 37.0133 55.5817 35.6249C55.5427 35.4351 55.4979 35.2521 55.4456 35.0643C55.1233 33.9062 54.5547 32.7963 53.713 31.8631C52.9319 31.0655 52.107 30.5169 51.4358 30.0071C49.413 28.7919 47.2369 27.8574 45.0002 27.1795C44.0485 26.8911 43.0874 26.6547 42.1166 26.4571C39.0349 25.8421 35.9287 25.637 32.8717 25.5478C32.7342 25.549 32.601 25.5458 32.4633 25.5478C28.8907 25.599 25.2777 25.8736 21.7209 26.6066C21.1232 26.7314 20.5308 26.8651 19.9388 27.0176C16.6821 27.8568 13.5189 29.1216 10.5949 30.8292C9.89738 31.3197 9.14709 31.8289 8.40431 32.4236L9.95132 34.4291C10.5609 33.9441 11.254 33.4854 11.9686 32.9717C14.6439 31.4062 17.5616 30.2528 20.5823 29.4839C21.1315 29.3442 21.6855 29.2122 22.2407 29.0978C25.5663 28.4027 28.9957 28.1554 32.4509 28.1013C32.5841 28.0993 32.7138 28.0905 32.847 28.0889C35.8287 28.1824 38.7793 28.3702 41.6216 28.9483C42.506 29.1244 43.3832 29.3397 44.2453 29.5961C46.2712 30.1985 48.2192 31.0311 50.0125 32.1122C50.7478 32.69 51.4285 33.1226 51.8689 33.6194C52.3938 34.1344 52.7603 34.8341 52.9828 35.6C53.0189 35.7241 53.0532 35.8468 53.0818 35.9737C53.1249 36.8139 52.9416 37.6682 52.4877 38.2905C52.1935 38.7873 51.647 39.2505 51.0521 39.8226C49.5596 40.9466 47.8948 41.835 46.1265 42.5007C45.4909 42.74 44.8393 42.9537 44.1834 43.136C41.8489 43.7979 39.3836 44.1198 36.8692 44.419C36.0635 44.4774 35.2519 44.5162 34.4435 44.5435C30.429 44.6792 26.3987 44.4285 22.513 43.6342C19.3963 42.9972 16.3746 42.013 13.528 40.6198C12.8233 40.2108 12.1284 39.8286 11.4859 39.424C10.9908 39.1123 10.5242 38.782 10.0998 38.4275C8.90314 37.4532 7.93917 36.172 7.25334 34.7529C6.85783 34.005 6.84498 32.9889 6.98107 31.9627C7.07792 31.4867 7.1933 31.0339 7.33997 30.6299C7.48279 30.2366 7.65405 29.8896 7.89689 29.6334C9.1455 27.9615 10.7547 26.5596 12.5627 25.5229C13.6346 24.904 14.7985 24.4052 16.0156 23.9285L15.1492 21.5244V21.5244Z" fill="#A8A8A8" stroke="#545252" stroke-miterlimit="10" stroke-linecap="round" stroke-linejoin="round"/>
<path d="M10.5206 16.7661C9.56563 17.405 8.53148 18.0886 7.57512 18.9833C6.21822 20.2998 5.23706 21.9327 4.642 23.6793C4.22167 25.2569 4.31906 26.9174 4.84002 28.4127C4.85938 28.4683 4.88134 28.5194 4.9019 28.5746C5.3401 29.7478 6.00449 30.8383 6.88206 31.7509C8.80046 33.7284 11.103 35.3094 13.5899 36.4345C13.9758 36.6078 14.3636 36.766 14.7532 36.9203C16.6285 37.6629 18.5381 38.2084 20.4091 38.714C22.5893 39.1996 24.8 39.5566 27.0302 39.7852C31.2267 40.2155 35.4814 40.1691 39.6538 39.5485C42.0229 39.1962 44.3637 38.6668 46.6586 37.9292C47.9743 37.3912 49.4114 36.871 50.817 36.0608C51.1331 35.8758 51.4362 35.6759 51.7328 35.4629C52.9695 34.5745 54.032 33.4459 54.8516 32.162C55.6031 31.0053 55.7422 29.7408 55.5694 28.6867C55.5448 27.7429 55.2384 26.6156 54.3689 25.6474C53.6838 24.8032 52.8951 24.0422 52.0422 23.3804C51.2192 22.7418 50.3332 22.1958 49.3937 21.7486C47.6925 20.9422 45.9632 20.4468 44.3319 19.93C42.9115 19.5846 41.4684 19.3024 40.0251 19.083C35.8556 18.4491 31.61 18.3326 27.4139 18.7342C23.8474 19.0756 20.3169 19.7904 16.8943 20.8642C16.3164 21.0815 15.7381 21.2933 15.1493 21.5244L16.0156 23.9284C16.575 23.7094 17.1493 23.4874 17.7235 23.2683C20.9563 22.2473 24.3005 21.5754 27.6738 21.2504C31.6426 20.8679 35.6546 20.9717 39.5919 21.5742C40.9549 21.7828 42.3117 22.0429 43.6513 22.3714C45.3033 22.9046 46.8972 23.365 48.3046 24.053C49.0969 24.4383 49.8504 24.9058 50.5447 25.4481C51.2643 26.0101 51.916 26.6466 52.4877 27.3539C52.8027 27.5749 52.9064 28.2175 53.057 28.9483C53.0737 29.7057 53.0704 30.4113 52.76 30.7295C52.1032 31.7598 51.2552 32.6584 50.2724 33.3703C50.0368 33.541 49.7922 33.7089 49.5422 33.856C48.4505 34.5109 47.1507 34.9709 45.7923 35.5376C43.6525 36.2354 41.4591 36.7397 39.233 37.0698C35.3125 37.651 31.2847 37.6842 27.3025 37.2691C25.1862 37.0484 23.0801 36.6975 21.0031 36.2352C19.1631 35.7311 17.3659 35.2287 15.669 34.5536C15.3165 34.4133 14.9595 34.2616 14.6171 34.1052C12.4063 33.1033 10.378 31.7177 8.70134 29.9822C8.07798 29.337 7.58942 28.5346 7.26572 27.6778C7.2515 27.6403 7.24203 27.6034 7.22861 27.5657C6.86717 26.55 6.77445 25.4288 7.05534 24.4391C7.53306 23.0632 8.29557 21.7968 9.32016 20.8393C10.0151 20.1572 10.9051 19.582 11.8449 18.946L10.5206 16.7661H10.5206Z" fill="#A8A8A8" stroke="#545252" stroke-miterlimit="10" stroke-linecap="round" stroke-linejoin="round"/>
<path d="M29.9386 4.38464C26.889 4.53521 23.8366 4.93502 20.8422 5.61781C19.751 5.90312 18.6419 6.18893 17.5378 6.52711C16.2806 6.91221 15.0353 7.35353 13.8003 7.8973C11.2239 9.0398 8.83962 10.6656 6.85732 12.7054C6.72337 12.8461 6.59794 12.9928 6.47367 13.1414C5.79437 13.9534 5.25686 14.8712 4.88953 15.8568C4.32407 17.3857 4.21019 19.0894 4.62964 20.7147C5.24181 22.5 6.25347 24.1711 7.64939 25.5104C7.78147 25.6324 7.91109 25.7571 8.04542 25.8716C9.05925 26.7363 10.131 27.3936 11.1023 28.039C13.7701 29.5129 16.6172 30.6352 19.5428 31.4271C20.5621 31.703 21.5886 31.9412 22.6244 32.1371C25.7549 32.721 28.9203 32.9606 32.0673 32.9966C32.7691 33.0046 33.4717 33.0074 34.1712 32.9966C37.0926 32.8362 40.0621 32.5824 43.0077 31.9253C43.5416 31.8038 44.0764 31.6652 44.6042 31.5143C47.1713 30.7805 49.651 29.6943 51.9185 28.2258C52.5615 27.6949 53.3678 27.1174 54.109 26.2578C54.6562 25.5482 55.0416 24.7489 55.2971 23.9284C55.4792 23.3435 55.5982 22.745 55.6436 22.1472C55.4964 20.702 54.967 19.2558 53.9976 18.0491C53.232 17.1938 52.4016 16.6111 51.7452 16.081C50.3755 15.2174 48.9413 14.4883 47.4507 13.8887C45.9097 13.2689 44.3107 12.7854 42.6983 12.4314C40.1212 11.8772 37.5309 11.6303 34.9633 11.4847C34.5505 11.4613 34.1368 11.4411 33.7257 11.4224C29.9684 11.3946 26.1744 11.617 22.4264 12.3317C22.3925 12.3382 22.3489 12.3376 22.315 12.3441C18.3502 13.1203 14.4898 14.4844 10.9414 16.4796C10.8022 16.5738 10.6635 16.6705 10.5206 16.7661L11.8449 18.9459C11.9855 18.8508 12.1232 18.7454 12.2656 18.647C15.5225 16.8123 19.1072 15.5606 22.7977 14.8478C22.8294 14.8416 22.8649 14.8415 22.8967 14.8354C26.4081 14.1564 30.0304 13.9421 33.6638 13.9635C34.0653 13.9826 34.4644 14.0027 34.8643 14.0258C37.3516 14.1691 39.7974 14.4035 42.1661 14.9226C43.6278 15.2356 45.0669 15.671 46.4482 16.2181C47.7844 16.7472 49.0655 17.3853 50.2724 18.1488C50.9983 18.759 51.6784 19.1983 52.0793 19.7058C52.6716 20.3234 52.9951 21.2373 53.1189 22.1846C53.0782 22.5722 52.9994 22.9474 52.8838 23.3056C52.7216 23.8081 52.4859 24.2671 52.1536 24.626C51.7731 25.1291 51.1247 25.5763 50.421 26.183C48.429 27.4776 46.2007 28.4262 43.8864 29.0729C43.4106 29.2058 42.9337 29.3268 42.4508 29.4341C39.7493 30.0483 36.9285 30.2919 34.0722 30.4555C33.3961 30.4648 32.7296 30.4635 32.0549 30.4555C29.0296 30.4197 26.016 30.1887 23.0823 29.6334C22.1173 29.4534 21.1585 29.2393 20.2111 28.9857C17.4919 28.2577 14.8659 27.2287 12.4142 25.8716C11.42 25.1968 10.4577 24.6058 9.67906 23.9284C9.57588 23.8387 9.47843 23.7478 9.38203 23.6544C8.32551 22.6811 7.54831 21.3764 7.05534 19.9674C6.77536 18.9446 6.87257 17.7894 7.26573 16.7537C7.53509 16.036 7.91966 15.3658 8.40433 14.7856C8.49299 14.6794 8.58149 14.5737 8.6766 14.4742C10.4109 12.6821 12.5228 11.2439 14.8151 10.2266C15.9162 9.73409 17.0693 9.3423 18.2556 8.98099C19.2975 8.66369 20.371 8.36975 21.4487 8.08414C24.269 7.43969 27.1567 7.08042 30.0624 6.93817L29.9386 4.38464Z" fill="#A8A8A8" stroke="#545252" stroke-miterlimit="10" stroke-linecap="round" stroke-linejoin="round"/>
</svg>
